<svg version="1.1" id="Layer_1" xmlns:x="ns_extend;" xmlns:i="ns_ai;" xmlns:graph="ns_graphs;" xmlns="http://www.w3.org/2000/svg" xmlns:xlink="http://www.w3.org/1999/xlink" x="0px" y="0px" viewBox="0 0 429.6 72" style="enable-background:new 0 0 429.6 72;" xml:space="preserve">
 <style type="text/css">
  .st0{fill:#008A48;}
	.st1{fill:#FFFFFF;}
	.st2{fill:#003D7C;}
 </style>
 <metadata>
  <sfw xmlns="ns_sfw;">
   <slices>
   </slices>
   <sliceSourceBounds bottomLeftOrigin="true" height="72" width="429.6" x="-14.9" y="-235.9">
   </sliceSourceBounds>
  </sfw>
 </metadata>
 <g>
  <rect x="0.7" y="1.4" class="st0" width="69.1" height="67.8">
  </rect>
  <g>
   <path d="M0,69.9h70.5V0.6H0V69.9z M1.4,13.4c2.8,12.4,12.2,22.3,24.3,25.7H1.4V13.4z M69.1,13.8v25.4H44.8
			C56.8,35.7,66.2,26,69.1,13.8 M1.4,47.3h29.8v21.2H1.4V47.3z M39.4,47.3h29.7v21.2H39.4V47.3z">
   </path>
   <polygon class="st1" points="69.1,2 1.5,2 1.5,8 32.2,8 32.2,33.1 38.3,33.1 38.3,8 69.1,8 		">
   </polygon>
   <path class="st2" d="M100.7,19.5c0,4.7-3.8,7.4-9.9,7.4c-3.6,0-7.5-0.1-11.8-0.3v-26c4.2-0.2,8-0.2,11.3-0.2
			c5.9,0,9.3,2.5,9.3,6.9c0,2.9-1.8,5.4-4.5,6.2C98.5,14.3,100.7,16.6,100.7,19.5 M85.4,5.7v5.7H90c2.2,0,3.6-1.2,3.6-3
			c0-1.8-1.4-2.7-4.1-2.7H85.4z M94.4,18.6c0-1.7-1.5-2.6-3.7-2.6h-5.2v5.6c0.4,0,1.1,0,2.3,0.1c1.1,0,1.9,0,2.3,0
			C92.9,21.7,94.4,20.6,94.4,18.6">
   </path>
   <path class="st2" d="M110.8,26.7h-7l11.6-26.2h6l11.6,26.2h-7l-1.8-4.3h-11.6L110.8,26.7z M114.8,16.9h7.2l-3.6-8.7L114.8,16.9z">
   </path>
   <polygon class="st2" points="162.3,26.7 156.4,26.7 144.3,11.5 144.3,26.7 137.9,26.7 137.9,0.6 143.8,0.6 155.9,15.9 155.9,0.6 
			162.3,0.6 		">
   </polygon>
   <polygon class="st2" points="175.8,26.7 169.3,26.7 169.3,0.6 175.8,0.6 175.8,11.6 177,11.6 185.5,0.6 193.3,0.6 183.9,12.8 
			193.9,26.7 186,26.7 179.8,17.9 175.8,17.9 		">
   </polygon>
   <path class="st2" d="M221.4,0c-7.5,0-13.6,6.1-13.6,13.6c0,7.5,6.1,13.6,13.6,13.6c7.5,0,13.6-6.1,13.6-13.6
			C235,6.1,228.9,0,221.4,0 M221.4,20.9c-4.1,0-7.3-3.3-7.3-7.3c0-4.1,3.3-7.3,7.3-7.3c4.1,0,7.3,3.3,7.3,7.3
			C228.7,17.6,225.4,20.9,221.4,20.9">
   </path>
   <polygon class="st2" points="257.9,12 257.9,17.8 247,17.8 247,26.7 240.6,26.7 240.6,0.6 259.6,0.6 259.6,6.3 247,6.3 247,12 		
			">
   </polygon>
   <path class="st2" d="M281.1,26.7h-7l11.6-26.2h6l11.6,26.2h-7l-1.8-4.3h-11.6L281.1,26.7z M285,16.9h7.2l-3.6-8.7L285,16.9z">
   </path>
   <polygon class="st2" points="325.5,12 325.5,17.8 314.6,17.8 314.6,26.7 308.1,26.7 308.1,0.6 327.2,0.6 327.2,6.3 314.6,6.3 
			314.6,12 		">
   </polygon>
   <path class="st2" d="M341.4,19.2h-2.7v7.5h-6.4v-26c3.6-0.2,7-0.2,10.4-0.2c6.8,0,10.9,3.3,10.9,9.3c0,3.5-1.6,6.2-4.5,7.9
			l6.2,9.1h-7.7l-4.8-7.5H341.4z M342.8,13.8c2.6,0,4.4-1.6,4.4-4c0-2.5-1.6-3.8-4.7-3.8c-0.4,0-1,0-1.9,0h-2v7.8H342.8z">
   </path>
   <rect x="360.1" y="0.6" class="st2" width="6.5" height="26">
   </rect>
   <path class="st2" d="M395.4,7.2c-3.6-0.7-6.1-1-7.7-1c-5.4,0-8.5,3-8.5,7.4c0,2.3,0.7,4.1,2.2,5.5c1.5,1.4,3.5,2.1,5.9,2.1
			c1.8,0,4.5-0.3,8-1l1.1,5.6c-3.5,1-6.7,1.4-9.5,1.4c-4.4,0-7.9-1.3-10.6-3.7c-2.6-2.5-4-5.8-4-9.9c0-4.1,1.3-7.3,4-9.8
			c2.7-2.5,6.2-3.7,10.6-3.7c3.1,0,6.3,0.4,9.5,1.3L395.4,7.2z">
   </path>
   <path class="st2" d="M407.5,26.7h-7l11.6-26.2h6l11.6,26.2h-7l-1.8-4.3h-11.6L407.5,26.7z M411.5,16.9h7.2L415,8.2L411.5,16.9z">
   </path>
   <path class="st2" d="M424.7,43.6c-6.5-6.5-17.1-6.5-23.6,0c-6.5,6.5-6.5,17.1,0,23.6c6.5,6.5,17.1,6.5,23.6,0
			C431.2,60.6,431.2,50.1,424.7,43.6 M422.4,62.5c-5.2,5.2-13.6,5.2-18.9,0c-5.2-5.2-5.2-13.6,0-18.9c5.2-5.2,13.6-5.2,18.9,0
			C427.6,48.9,427.6,57.3,422.4,62.5">
   </path>
   <polygon class="st0" points="417.5,43.4 408.1,43.4 404.2,47.8 406.6,51.5 411.1,52.4 414.4,63.7 421.2,49.7 		">
   </polygon>
   <polygon class="st0" points="418.8,58.3 417.3,60.7 419.1,60.3 419.8,57.7 		">
   </polygon>
   <path class="st2" d="M219.4,58.5c0,2.6-2,4.1-5.4,4.1c-2,0-4.1-0.1-6.2-0.2V48.3c2.4-0.1,4.4-0.1,5.9-0.1c3.2,0,5.1,1.4,5.1,3.8
			c0,1.6-1,2.9-2.6,3.3C218.2,55.6,219.4,56.9,219.4,58.5 M212.1,50.8h-1.3v3.4h2.9c1.4,0,2.2-0.7,2.2-1.8c0-1.2-0.8-1.6-2.6-1.6
			C213.1,50.7,212.6,50.7,212.1,50.8 M216.4,58.2c0-1-0.9-1.6-2.3-1.6h-3.3v3.3c1.4,0.1,2.4,0.1,2.9,0.1
			C215.5,60,216.4,59.4,216.4,58.2">
   </path>
   <polygon class="st2" points="233.3,62.4 230.8,62.4 227.1,54.9 226.6,62.4 223.7,62.4 224.5,48.3 227.3,48.3 232,58.7 236.8,48.3 
			239.5,48.3 240.3,62.4 237.4,62.4 236.9,54.9 		">
   </polygon>
   <path class="st2" d="M256.9,51.4c-1.8-0.4-3.2-0.6-4.1-0.6c-1.6,0-2.9,0.4-3.8,1.2c-0.9,0.8-1.3,1.9-1.3,3.2
			c0,1.4,0.4,2.5,1.3,3.3c0.9,0.9,2.1,1.3,3.5,1.3c0.9,0,2.4-0.2,4.3-0.6l0.5,2.6c-1.8,0.5-3.4,0.8-5,0.8c-2.4,0-4.3-0.7-5.7-2
			c-1.4-1.4-2.2-3.1-2.2-5.4c0-2.2,0.7-4,2.2-5.3c1.4-1.4,3.3-2,5.7-2c1.6,0,3.3,0.2,5,0.6L256.9,51.4z">
   </path>
   <polygon class="st2" points="271.7,54 271.7,56.7 265.1,56.7 265.1,59.7 272.6,59.7 272.6,62.4 262.1,62.4 262.1,48.3 272.6,48.3 
			272.6,51 265.1,51 265.1,54 		">
   </polygon>
   <path class="st2" d="M297.9,61.2c-2.5,1-4.7,1.5-6.6,1.5c-2.3,0-4.1-0.7-5.5-2c-1.4-1.4-2.1-3.2-2.1-5.4c0-2.2,0.7-4,2.2-5.3
			c1.5-1.4,3.4-2,5.8-2c1.6,0,3.3,0.2,5,0.6l-0.6,2.8c-2.1-0.4-3.5-0.5-4.1-0.5c-1.5,0-2.7,0.4-3.7,1.2c-0.9,0.8-1.4,1.9-1.4,3.2
			c0,1.4,0.4,2.5,1.2,3.3c0.8,0.8,1.9,1.2,3.2,1.2c1.1,0,2.4-0.2,3.8-0.5v-2.5h-4.8v-2.7h7.6V61.2z">
   </path>
   <path class="st2" d="M307.4,58.1h-1.7v4.3h-3V48.3c2.2-0.1,4-0.1,5.5-0.1c3.6,0,5.8,1.8,5.8,4.9c0,1.9-1,3.4-2.7,4.3l3.6,5.1h-3.6
			l-2.9-4.3H307.4z M308.5,55.5c1.5,0,2.6-1,2.6-2.4c0-1.5-1-2.2-2.8-2.2c-1.1,0-1.9,0-2.5,0v4.6H308.5z">
   </path>
   <path class="st2" d="M325.6,47.9c2.2,0,4.1,0.7,5.5,2c1.4,1.4,2.1,3.1,2.1,5.3c0,2.2-0.7,4-2.1,5.3c-1.4,1.4-3.2,2-5.5,2
			c-2.2,0-4.1-0.7-5.5-2c-1.4-1.4-2.1-3.1-2.1-5.3c0-2.2,0.7-4,2.1-5.3C321.6,48.6,323.4,47.9,325.6,47.9 M325.6,59.9
			c1.3,0,2.4-0.4,3.2-1.3c0.8-0.9,1.2-2,1.2-3.3c0-1.4-0.4-2.5-1.2-3.3c-0.8-0.9-1.9-1.3-3.2-1.3c-1.3,0-2.4,0.4-3.2,1.3
			c-0.8,0.8-1.2,1.9-1.2,3.3c0,1.4,0.4,2.5,1.2,3.3C323.3,59.5,324.3,59.9,325.6,59.9">
   </path>
   <path class="st2" d="M350.5,56.2c0,2-0.6,3.6-1.8,4.8c-1.2,1.2-2.7,1.7-4.7,1.7c-2,0-3.5-0.6-4.7-1.7c-1.2-1.2-1.7-2.8-1.7-4.8
			v-7.9h3v7.9c0,2.3,1.3,3.7,3.5,3.7c2.1,0,3.5-1.4,3.5-3.7v-7.9h3V56.2z">
   </path>
   <path class="st2" d="M364.9,49.4c1.1,0.9,1.6,2.1,1.6,3.7s-0.6,2.8-1.7,3.7c-1.1,0.9-2.5,1.4-4.3,1.4h-2.2v4.2h-3V48.3
			c2.1-0.1,3.8-0.2,5.2-0.2C362.4,48.1,363.8,48.5,364.9,49.4 M360.9,55.6c1.6,0,2.8-1,2.8-2.4c0-1.4-1.1-2.3-2.8-2.3
			c-1.1,0-2,0-2.5,0v4.7H360.9z">
   </path>
  </g>
 </g>
</svg>