<svg version="1.1" id="Layer_1" xmlns:x="ns_extend;" xmlns:i="ns_ai;" xmlns:graph="ns_graphs;" xmlns="http://www.w3.org/2000/svg" xmlns:xlink="http://www.w3.org/1999/xlink" x="0px" y="0px" viewBox="0 0 44.5 40" style="enable-background:new 0 0 44.5 40;" xml:space="preserve">
 <metadata>
  <sfw xmlns="ns_sfw;">
   <slices>
   </slices>
   <sliceSourceBounds bottomLeftOrigin="true" height="40" width="44.5" x="177.6" y="180.3">
   </sliceSourceBounds>
  </sfw>
 </metadata>
 <g>
  <path d="M28.3,25.1l0.6,1c0.8,1.3,1.7,2.7,2.7,4.4l2.4,3.9c1.8,3,2.5,4.1,2.9,4.5c1.9,1.9,4.6,1.1,6.1-1.2c1.1-1.6,1.5-2.8,1.5-4.3
		c0-0.5-0.4-1.5-2.4-5.2c-1.3-2.5-3.1-5.9-5.1-9.6c-4-7.5-7.8-14.3-8.5-15.4c-1.7-2.6-2.5-3.2-5.3-3.3h-1.9
		c-2.7,0.1-3.6,0.7-5.3,3.3c-1.6,2.5-15.4,28-16,29.7C0,33.1,0,33.3,0,33.4v0.5C0,34,0,34,0,34c0.1,1.2,0.6,2.4,1.5,3.7
		C3,40,5.7,40.9,7.6,38.9c0.4-0.4,1.1-1.5,2.9-4.5l2.4-3.9c1.1-1.8,2.2-3.6,3.3-5.4c2.6-4.2,4.6-7.3,6-9.2
		C23.7,17.8,25.7,20.9,28.3,25.1L28.3,25.1z M2.7,33.6C3.9,31,16.8,7,18.3,4.8c1.3-1.9,1.3-2,3-2.1h1.8c1.7,0.1,1.8,0.1,3.1,2.1
		c0.7,1,4.4,7.8,8.4,15.2c1.7,3.2,3.4,6.4,5.1,9.6c0.7,1.3,1.2,2.4,1.6,3.2c0.2,0.4,0.3,0.7,0.4,0.9l0,0c0,0,0,0,0-0.1
		c0,0.9-0.3,1.6-1,2.8c-0.7,1-1.5,1.2-1.9,0.8c-0.1-0.1-1-1.5-2.5-4c-0.5-0.8-2.3-3.8-2.4-3.9c-1.1-1.8-2.2-3.6-3.3-5.4
		c-2.7-4.3-4.7-7.4-6.2-9.4c-1.1-1.5-3.3-1.5-4.4,0c-1.5,2-3.5,5.1-6.2,9.4l-0.6,1c-0.8,1.3-1.7,2.7-2.7,4.5l-2.4,3.9
		c-1.5,2.5-2.4,3.9-2.5,4c-0.4,0.5-1.2,0.2-1.9-0.8c-0.7-1-0.9-1.7-1-2.4V33.6z M2.7,33.6">
  </path>
 </g>
</svg>