<svg height="44" width="100%" viewBox="0 0 286 44" fill="none" xmlns="http://www.w3.org/2000/svg"><path d="M93.4 14.5h5.4v.1L97 16.2a167.5 167.5 0 0 0-.1 7.5c0 2.3 0 4.4.2 6.4h-2.2a.7.7 0 0 0-.2-.4 12.3 12.3 0 0 1-.4-.5L85 17.6c0 3.5 0 7.1.2 10.7l2 1.5v.3H82v-.3l1.8-1.5c.2-3 .2-7.1 0-12.1l-2.2-1.6v-.1h4.7l1.1 1.6 2 2.5c1 1 1.8 2.1 2.9 3.4l3.5 4.4V21l-.1-4.8-2.2-1.6v-.1zm14.8 1.4 1.8-1.3v-.1h-6.3v.1l1.8 1.3v12.6l-2 1.3v.2h6.6v-.2l-2-1.3V16zM126 28.7h-6.4v-6.1a178.4 178.4 0 0 1 4.9 0l1.2 1.7h.2v-4.8h-.2l-1.2 1.8h-5v-5.5h6.4l1.3 1.7h.2v-3H115v.1l1.8 1.3v12.6l-1.8 1.3v.2h12.6v-3.5h-.2l-1.5 2.2zm-54.3-14 2.1 1.5.1 4.8v5.4L70.5 22a156.8 156.8 0 0 0-2.9-3.4l-2-2.6a14.8 14.8 0 0 1-1.1-1.5h-4.7v.1l2.2 1.6c.2 5 .2 9 0 12.2l-1.8 1.5v.2h5.3v-.2l-2-1.5-.2-10.8 9.3 11.6.4.5.2.5h2.2a86.4 86.4 0 0 1-.2-6.5v-7.4l2-1.7v-.1h-5.4v.1zM4.5 10.4 6.9 12l.2 16.7v1.8a12.8 12.8 0 0 1-.2 1.4c0 .4-.2.8-.4 1.2l-.7 1a4.1 4.1 0 0 1-1.3 1.1 3.6 3.6 0 0 1-1.8.4.8.8 0 0 0 .2-.3 1.3 1.3 0 0 0 .2-.7A1 1 0 0 0 3 34a2.3 2.3 0 0 0-.4-.5 1.9 1.9 0 0 0-.4-.3 1.3 1.3 0 0 0-.6-.1 1.6 1.6 0 0 0-1.1.4c-.2.2-.3.3-.3.5l-.2.7a1.6 1.6 0 0 0 .3.9l.6.6c.2.1.5.3.8.3l1 .2a5.6 5.6 0 0 0 1.7-.3 6.4 6.4 0 0 0 1.5-.8l1.4-1.3a8.3 8.3 0 0 0 1-1.5l.8-1.5a6.6 6.6 0 0 0 .6-1.5 10.8 10.8 0 0 0 .4-4v-5.5l-.1-3.8v-4.8l2-1.2v-.2H4.4v.1zm25.7 14.9a9.3 9.3 0 0 0 .5-3.2 10.2 10.2 0 0 0-.4-2.8 7.4 7.4 0 0 0-1-2.3 5 5 0 0 0-4.3-2 5 5 0 0 0-2.4.6A5.3 5.3 0 0 0 21 17a7 7 0 0 0-1.1 2.3c-.2.9-.4 1.9-.4 2.8a9.6 9.6 0 0 0 .5 3 7 7 0 0 0 1.2 2.4 6 6 0 0 0 1.9 1.4 5.5 5.5 0 0 0 2.1.5 5.3 5.3 0 0 0 2-.4 6.2 6.2 0 0 0 1.8-1.5 6.9 6.9 0 0 0 1.2-2.2zm2.4-7.5c.4.6.7 1.3.9 2a8.5 8.5 0 0 1-.3 5.6 8.5 8.5 0 0 1-1.9 2.6 8 8 0 0 1-2.6 1.9 7 7 0 0 1-3.4.6c-1.2 0-2.3-.1-3.4-.6a9 9 0 0 1-2.7-1.9 8 8 0 0 1-2-2.6 7.7 7.7 0 0 1-.6-3.3c0-1.6.5-3.3 1.5-4.6a8.5 8.5 0 0 1 3.8-3.1 9 9 0 0 1 3.5-.7 7.9 7.9 0 0 1 2 .3c.7.2 1.4.4 2 .8a7 7 0 0 1 1.7 1.3 6.4 6.4 0 0 1 1.4 1.7zm16.3-3.3 1.8 1.3v5.3h-8.4v-5.3l1.9-1.3v-.1h-6.3v.1l1.7 1.3v12.6L38 29.8v.2h6v-.2l-1.8-1.3v-6h8.3v6l-1.8 1.3v.2H55v-.2l-1.8-1.3V15.9l1.8-1.3v-.1h-6v.1zm142.3-4 1 .6.8.6-1.6 5.6-1.2 4.3-.9 3a25.7 25.7 0 0 0-.4 1.5L184.6 12a23.2 23.2 0 0 1 1.6-1.4v-.2h-6.9v.2l1.8 1.3a176.8 176.8 0 0 0-1.4 4.3l-1 3.8c-.4 1.1-.8 2.2-1 3.2l-.9 3-4.1-14.2 1.7-1.4v-.2h-6.7v.2l.7.6a5.4 5.4 0 0 1 .8.7l.2.3.9 2.8 1.4 4.3 1.7 5.2a220.4 220.4 0 0 1 1.8 5.9h2.2a.7.7 0 0 1 0-.3v-.3l.1-.4a1.6 1.6 0 0 0 .1-.4 146.6 146.6 0 0 0 1.3-4.8l.8-2.7.8-2.7.8-2.6.7-2.3 5.2 16.4h2a45.3 45.3 0 0 1 1.7-5.7 928.4 928.4 0 0 0 1.7-5.4l2-7.1 1.2-1 .5-.5v-.2h-5v.2zM206.6 23l-2.6-6.6-2.4 6.6h5zm5.1 5.2 1.8 1.6v.1h-6.8v.1l2-1.6-1.7-4h-5.9l-1.5 4 2 1.6v.1h-5.3V30l1.9-1.6 5.4-14.1h2.2l6 14zm52.5.4a74.2 74.2 0 0 1-6.4 0 172.7 172.7 0 0 1 0-6l5-.1 1.1 1.7h.2v-4.8h-.2l-1.2 1.8h-5a96.8 96.8 0 0 1 0-2.7V16l3-.1h3.4l1.3 1.8h.2v-3h-12.3L255 16v12.7l-1.7 1.2v.2h12.6v-3.4h-.2l-1.5 2.1zm13.3-6.5c1.4 0 2.4-.3 3-.9a3 3 0 0 0 1.2-2.5 3.1 3.1 0 0 0-.3-1.2 2.6 2.6 0 0 0-.7-1 3.2 3.2 0 0 0-1-.7 3.8 3.8 0 0 0-1.5-.2h-1.7a8.7 8.7 0 0 1-.7 0V22h1.7zm8.2 7.4.3.3v.2h-3.6l-3.6-6.2a1.5 1.5 0 0 0-.6-.5 2.3 2.3 0 0 0-.8-.1h-1.6v5.3l1.8 1.3v.1h-6.4v.1l1.8-1.3V16l-1.7-1.3v-.2h7.3a9.3 9.3 0 0 1 2.5.3 6.2 6.2 0 0 1 2 .9 4.7 4.7 0 0 1 1.2 1.3c.3.6.5 1.1.5 1.7a3.5 3.5 0 0 1-.4 1.6 3.9 3.9 0 0 1-1 1.3 5.2 5.2 0 0 1-1.7.8l-2 .4a3.2 3.2 0 0 1 1.3.4c.4.3.7.6.9 1l2.5 3.9.3.4.5.6.5.5zm-45-8.6a312 312 0 0 1 3.5-3.2 88 88 0 0 1 2.2-1.9l2.3-1.2v-.2h-5.2v.2l.8 1.2-1.7 1.7-1.7 1.5-1.6 1.5-1.5 1.2c1.8 1.8 4 4 6.3 6.8l-.7 1.2v.2h5.8v-.2l-1.3-1.2c-3.4-3.4-5.7-6-7.2-7.6zm-2.9-5 1.9-1.3v-.2h-6.4v.2l1.8 1.2v12.7l-1.9 1.2v.2h6.5v-.2l-1.9-1.2a982 982 0 0 1 0-12.7zm-10.2 12.6h-5.8a497 497 0 0 1 0-12.7l2-1.2v-.2h-6.5v.2l1.7 1.2v12.7l-1.7 1.2v.2h12v-3.4h-.3l-1.4 2zm-88-3.9c-.3-.2-.5-.7-.5-1.5a5.2 5.2 0 0 1 2-3.8c1.4-1 2.8-1.1 3.3-1.3-1 0-1.5-.5-1.4-.9 0 0 .3.2.8.2.7 0 1.2-.2 2-.7.2-.1.3 0 .3.2a4 4 0 0 0 .9-2c.2.3 1 .5 1.4.6l1.7.3a27 27 0 0 0-1.6-.6 7.5 7.5 0 0 1-.7-.3 2 2 0 0 1-.4-.2 1 1 0 0 1-.1 0l-.2-.2a12.4 12.4 0 0 1-1.6-2.5 7.1 7.1 0 0 1-.7-2.3 2.9 2.9 0 0 1 0-.4 2.8 2.8 0 0 1 0-.6.9.9 0 0 1 0-.3.7.7 0 0 1 .2-.2l.3-.3a.2.2 0 0 1 .1 0l-.3.8c-.1.9.6 1.6.9 1.9 1 1 1.6 1.3 2 2 .2.1 0 .2 0 .2h-.1c-.3 0-.6-.2-.5 0a1.2 1.2 0 0 0 .9.4l.4.1h.2l.1.1a.7.7 0 0 1 .2.1h-.4l-.4.1a2.7 2.7 0 0 1-.3 0 1.3 1.3 0 0 1-.3 0c-.5-.2-.9-.3-.6 0h.1c.2.2.5.3.7.3h.7a4.2 4.2 0 0 1 1.4 0c.2 0 .1-.3 0-.3a2 2 0 0 0-.4-.1 1 1 0 0 1-.5-.3.9.9 0 0 0-.1-.1.5.5 0 0 0-.2-.1h-.1a.4.4 0 0 1-.2-.2 1.2 1.2 0 0 1 0-.2 2.1 2.1 0 0 0-.1-.3c-.4-.7-.7-1.4-1.3-2l-.8-1c0-.1-.2-.5 0-.6.2 0 .9 1.3 1 1.4 0 0 0-.4-.2-.7a3.6 3.6 0 0 0-.2-.5 2 2 0 0 0-.5-.6 4 4 0 0 0-.5-.3s0-.2.5 0l.4.2a1.5 1.5 0 0 0-.8-.5s.5-.3 1-.2c.6 0 1 .1 1.5.3.3 0 0-.2-.2-.4a8.5 8.5 0 0 0-.8-.4h1l-.3-.2h-.4a.8.8 0 0 0 .4-.6v-.4l1.1 1.1a12 12 0 0 1 1.7 2.8c.5 1.1.9 2.3 1 3.5 0 0 0 .1 0 0 .4-.6.7-1.9.8-2.7a1.1 1.1 0 0 0-.2-.8c-.2-.3 0-.6 0-.9 0-.3-.2-.4-.3-.5-.2-.3-.1-.4-.1-.4h.5a1.3 1.3 0 0 1 .9.2c.1.1.3.6.8.6a1 1 0 0 1 .7.3 1 1 0 0 0 .4.3.5.5 0 0 0-.2.4l.2.4a.3.3 0 0 0 0-.1 1.6 1.6 0 0 1 0-.2c.1-.3.2-.3.3-.2l.1.2a1.4 1.4 0 0 0 .2.3l.9.5s.1 0 0 0l-.7-.6a2.6 2.6 0 0 1-.1-.2l-.2-.4a.4.4 0 0 0 .2 0v-.1a.5.5 0 0 0-.2 0 .5.5 0 0 1-.1 0 .5.5 0 0 1-.1 0l-.5-.3c-.1-.2 0-.1.2-.2s-.2-.4-.3-.3c-.1.2-.2 0-.2-.2a.8.8 0 0 0 0-.4l.1-.2a.7.7 0 0 0 .3.2.5.5 0 0 0 .1 0h.2a.3.3 0 0 0 .1 0h.1a.3.3 0 0 0 .1 0v-.2a.3.3 0 0 0-.1 0h-.2a.1.1 0 0 1-.1 0l-.1-.2a2.1 2.1 0 0 0-.5-.3 3 3 0 0 1-.6-.4.8.8 0 0 1-.2-.3c0-.1 0-.3-.2-.4 0-.1-.1-.2 0-.2h.3l.1.2v-.3a.9.9 0 0 1 .2-.3v.2a.2.2 0 0 0 0 .1.5.5 0 0 0 0 .1v.5l.1.2.2-.2h.1a.4.4 0 0 0 .1-.1v-.1h.1V6a.2.2 0 0 0 0-.1c0-.1-.1 0-.1 0a.4.4 0 0 0 0-.3h-.2a.4.4 0 0 0 0-.2l-.1-.2a.4.4 0 0 0-.1 0h.6a.2.2 0 0 1 .2.1v.2h-.2.2a.3.3 0 0 1 .3.2 3.9 3.9 0 0 0 .3.9.6.6 0 0 1 .2.2V7l.1.1a.1.1 0 0 1 .1 0 .1.1 0 0 1 0 .1l.2.1a.3.3 0 0 1 .1 0c.3 0 .3.2.3.4.1.4.3.7.6 1 .5.6 1 1.5 1 2 0 .2-.5.4-.7.5h-2.8l-2.2-.5c0 .7-.2 1.3-.3 2l-.5 1.7a1 1 0 0 1-.1 0h-.2l-.3-.2a4.3 4.3 0 0 0-.6 0 6 6 0 0 0-1-.1h-.6c-.3.1-.2.3.4.3h1a3.4 3.4 0 0 1 1 0l.3.2h.2l.8.2h.3l.2.1a7.5 7.5 0 0 0 .8 0c.1 0 0 0 0 .1a.5.5 0 0 1 0 .1h-.2l-.2.2a2.8 2.8 0 0 0-.3.2 1.1 1.1 0 0 0-.4 1c0 .4.4.3.3.4a.3.3 0 0 1-.3.2 3.5 3.5 0 0 1-.4 0l-.1-.5c-.2 0-.5 0-.3.2v.1s.1 0 0 0c-.4-.2-.4-.1-.5-.3a.4.4 0 0 1-.1-.1.4.4 0 0 0 0-.1.1.1 0 0 0-.1 0 .1.1 0 0 0-.1 0 .3.3 0 0 1-.4 0 .3.3 0 0 0-.1 0l.6.3-.2 1.2c-.2.1-.6-.7-.7-1v.1l-.1.2a3.1 3.1 0 0 1-.5.5 4.4 4.4 0 0 0-.9 0c-1.6 0-3.4 1-4.1 1.2a2.7 2.7 0 0 0-.3.1 5 5 0 0 0 1.3-.2 28.2 28.2 0 0 0 1-.4h.3-.2c-.3.4-.5.8-1.4 1.4a6.9 6.9 0 0 1-1.5.7h-.3c-2 .7-3 .6-4 1.2-.6.3-.9.9-.8 1.4a1.4 1.4 0 0 1 .6-1 5.1 5.1 0 0 1 2-.7c-1 .6-2.6 1.8-2.4 3.3h-.1zm11.5-12a.2.2 0 0 0-.2.2.2.2 0 0 0 .1.3.2.2 0 0 0 .2 0 .2.2 0 0 0 0-.1.2.2 0 0 0 .1-.2.2.2 0 0 0-.2-.1zm-.3-.8a.2.2 0 0 0 0-.3.2.2 0 0 0-.2 0 .2.2 0 0 0 0 .2.2.2 0 0 0 .2 0zm-2.2-3.1s.9.6 1.6 1.4l.6.7s.2.2 0-.2a4.5 4.5 0 0 0-.7-1l-1-.8.2-.5-.7.4zm1.7-2.5a.8.8 0 0 0-.1-.1l-.3.2h.4zm2.1 3.5c0-.2-.4-.2-.3 0v.2a.2.2 0 0 0 .2 0 .2.2 0 0 0 .1-.2zm-4-7.3c0 .3.6.5.8.5h.3c0 .1 0 .2-.4.2a.4.4 0 0 0-.3 0 .3.3 0 0 0 0 .4c-.1.3 0 .6 0 .8l-.1.1a.3.3 0 0 0-.1 0l.1.3h.4a.7.7 0 0 1 .2 0 1 1 0 0 1 .3.2l.2.2s.2-.1.1-.2a.2.2 0 0 1-.2 0v-.4a1.1 1.1 0 0 1-.2-.4.4.4 0 0 1 .2-.2.4.4 0 0 1 .2-.1c.2 0 .2.1.2.3a.1.1 0 0 0-.1 0l.1.2a1 1 0 0 1 0 .1v.2l.2.2.3.2h.1a.8.8 0 0 1 0-.6v-.3h.4l.2.1v.2a.2.2 0 0 1 0 .1h.2l.4.2h.3v.8a.1.1 0 0 1-.1.1.6.6 0 0 0-.1 0l-.2.2a.6.6 0 0 0 0 .1.3.3 0 0 0-.1.2.2.2 0 0 1 0 .1.7.7 0 0 0-.1 0 .4.4 0 0 0 0 .3.3.3 0 0 1-.2.3.4.4 0 0 1-.5 0 2.8 2.8 0 0 1-.2-.2l.1.2a1 1 0 0 0 .1 0c.4.3.8.3.9 0l.4-.6.6-.8.1-.6a1.6 1.6 0 0 1-.5-.3l-.4-.4-.5-.7a3.1 3.1 0 0 0-.4-.3h.1c.4.1.8.3 1 .7l.4.5.4.4c.4.1.7.2 1 .1.3 0 .4-.2.4-.2a1.8 1.8 0 0 0 .2.1h.2V5a.5.5 0 0 0 0 .1h.2s.2.1.2 0l-.2-.2a6 6 0 0 0-.6-.5l-.1.1a.4.4 0 0 0 0 .2 1 1 0 0 0-.3-.2 1 1 0 0 1-.6-.2c.1-.4.3-.7.6-1 .3-.3.6-.5.6-.7.1-.2-.2-1.2-1.4-1.9-1.2-.6-2-.7-2.3-.6-.3.1-.4.3-.4.4v.9a2.6 2.6 0 0 0-.2.5l.1.2.8.7c0 .2-.1 0-.2 0a4.3 4.3 0 0 0-.8-.4 3 3 0 0 0-1-.2c-.4 0-.8.1-.8.4zm3.2 5c0 .1 0 0 0 0a.3.3 0 0 0-.2 0h-.3l-.6-.4a.7.7 0 0 0 0 .4V8h.7a.3.3 0 0 0 .3.1h.1c.2 0 .5.3.4 0a.8.8 0 0 1 0-.7l.1-.2a.9.9 0 0 0-.3 0 .5.5 0 0 0-.2.2zm.7 3.3a.3.3 0 0 0 .3-.3c0-.2-.4-.1-.3 0a.5.5 0 0 1 0 .3zm2.5-4.8.1-.1v-.2a.6.6 0 0 0 0 .3zm-4-.3h.2l.1-.2a.4.4 0 0 0-.2 0v.2zm-8.2 25.7c.2 0 .1 0 0 .1l-.6.8c-.3.4-1.4 1.9-1.8 2.7a3 3 0 0 0-.3.9.2.2 0 0 0-.3 0c-.1 0 0 .1 0 .1.2 0 .2.2.3.2a.1.1 0 0 0 .1-.2v.2a.2.2 0 0 1-.1.2c0 .5 0 .9.2 1.3 0 .3.2.6.5 1l.7.4a.4.4 0 0 1 0 .5s.2 0 0 .3l-.4.1a3.8 3.8 0 0 1-1.5-.3c-.6-.2-.8-.4-1-.9l-.4-1h-.4a3.3 3.3 0 0 1-.3-.6 1.1 1.1 0 0 1 0-.8 1.1 1.1 0 0 1 .2-.7c0 .2.2.2.2.1l.3-.3c.2 0 .2-.1.1-.2a.4.4 0 0 0-.3 0l.2-.2a1.1 1.1 0 0 0 .1-.3l.2-.8.6-2a6.3 6.3 0 0 1 .8-1.4l.1.1a.4.4 0 0 0 .1.1l.2.2a6.8 6.8 0 0 0-.6 1c-.1.3-.7 1.6-.8 2.4-.1.8 0 .3.1 0l.6-1.5.9-1.6c0-.2.1-.1.2-.1a3.9 3.9 0 0 0 2 .2h.1zm-4 6.8c.2-.2.1-.4 0-.7l-.5-.5c0-.2 0-.4-.1-.3v.3c0 .3.2.5.3.7 0 .2.2.6.3.5zm1.2.7a.3.3 0 0 0-.2-.1c-.2 0-.4 0-.2.2l.5.2a.4.4 0 0 0 .2 0 .2.2 0 0 0 .1 0 .9.9 0 0 1-.2 0 .6.6 0 0 1-.2-.2zm-.5-.2c.3 0 .4-.1.2-.2a.5.5 0 0 0-.4 0v.3l.2-.1zM155 16.9h.5l.4-.3a.3.3 0 0 0 0-.2l.2-.1a.3.3 0 0 0 .2-.2V16l.2-.1.3-.2a.9.9 0 0 0 0-.3.2.2 0 0 1-.3 0l-.4-.1h-.2v.3a.8.8 0 0 1-.1 0c-.2.1-.2.2-.2.3a.2.2 0 0 1 0 .1l-.2.3-.1.1-.5.2a1 1 0 0 1-.6-.1.2.2 0 0 0-.1 0v.2c.1 0 .1 0 0 .1l.2.2-7 14h.1l7.6-14zm.5-2 .4-.1a.6.6 0 0 1 .2 0l.1-.2a.6.6 0 0 0 .4-.2.6.6 0 0 0 0-.8.6.6 0 0 0-.4-.1.6.6 0 0 0-.4 0 .2.2 0 0 1 .2 0v.3a.1.1 0 0 1-.1 0 .1.1 0 0 1-.1 0 .2.2 0 0 1-.1 0 .6.6 0 0 0 0 .6l-.3.5zm5.8 21.3.2.2a3.4 3.4 0 0 1-1.3 1.7l-1.8.5h-.2v.5a2.2 2.2 0 0 1-.5.3l-.6.3-.3-.4a2.8 2.8 0 0 1-.6-.7 1.3 1.3 0 0 1-.1-.3 1.1 1.1 0 0 1 0-.1l-.2-.4-.2-.3a.3.3 0 0 1 0-.2c.2-.3 0-.3 0-.3a.3.3 0 0 1-.2 0 .4.4 0 0 1 0-.4l-.2-.3-.1-.1a14.6 14.6 0 0 1-1.4-1.8 6.6 6.6 0 0 1-.8-1.7s.2-.1.2-.2c.1 0 .2 0 .3.2a.4.4 0 0 1 0 .1l.3.8a6.1 6.1 0 0 0 1.8 2.5l-.6-1a10.5 10.5 0 0 1-1.1-2.3 1.5 1.5 0 0 0-.1-.3.2.2 0 0 0-.1 0s-.1 0 0-.1l.4-.3c.3-.3.4-.7.6-1.1 0-.2 0-.3.2-.4V30l.1.3v.2a28.2 28.2 0 0 0 2.3 5.7.5.5 0 0 1 .3 0 .2.2 0 0 1 0 .1.2.2 0 0 1 0 .1l.5.2c.6.2 1.2.3 1.7.1h.1a1 1 0 0 1-1 .4c.3.2.8 0 1 0 .2-.2.1-.2.3-.1h.1l.1-.4a.7.7 0 0 1 .2-.3.5.5 0 0 1 .5 0 .2.2 0 0 1 .2 0zm-4.8 2.1V38l-.1-.3c-.1 0-.3 0-.3.2v.3l.4.2zm1.9 0 .1-.2a1.5 1.5 0 0 1-.5.1c-.2 0-.6 0-.8.2 0 .1-.2.4.1.3a1.3 1.3 0 0 1 .5-.3l.6-.1zm-4.9-6.6c.4-.3.6-.8.7-1.2l.5-1v-.4a.1.1 0 0 0-.1 0h-.2l.1-.5a2.2 2.2 0 0 0 0-.7.5.5 0 0 0-.2-.3v.3l-.1.7-.4.6.1.3.1.1c0 .1 0 .4-.5 1a4.7 4.7 0 0 1-.6.5 1 1 0 0 1 0 .2.8.8 0 0 1-.1.4c-.3.1 0 .5 0 .5l.7-.5zm-5.7-6.7c.4-.8.9-1.4 1.4-2a6 6 0 0 1 .7-.7l-.7.3a3 3 0 0 0-.8.8 18.4 18.4 0 0 0-1.5 2.5 4 4 0 0 1-.8 1.2c-.4.4-.9.5-1 .7a.7.7 0 0 0-.2 0 .3.3 0 0 0 0 .2.4.4 0 0 0 0 .2.5.5 0 0 1-.2.3 1.3 1.3 0 0 1-.4.3h-.3c-.2 0-.3.2-.2.3a.7.7 0 0 0 .2 0c.2 0 .2.1.2.2 0 0 0 .2-.5.3a5.4 5.4 0 0 1-1.4.2 3.4 3.4 0 0 0-.7 0l.2.2.7.1v.1a3 3 0 0 1-1.2 0l-.2-.1a1 1 0 0 1-.3-.3l-.1-.3-.3.4.2.4V30h.2a.3.3 0 0 1 0 .3.3.3 0 0 0 0 .1l.6.3h1.5s.2-.1.2 0a.5.5 0 0 1 0 .1l-.1.2a.8.8 0 0 0 .2 0l.4-.4c.2-.2.3-.3.2-.4v-.1c0-.1 0-.3.3-.4a3.6 3.6 0 0 0 .6-.4c.2-.2 0-.4.2-.6l.5-.4.3-.5 1-1c.5-.6.6-1.1 1.1-2zm6.2-9.4s-.2 0-.1.1h.3c.3-.1.3-.2.2-.2a2.7 2.7 0 0 0-.4 0zM143.5 21l-.9.1c-1 1-.4 1.7-.1 2 .2 0 0-.2 1-1.3a8 8 0 0 1 1.1-1c-.1 0-.6 0-1 .2zm12.7-6.2.5.2v.1a.2.2 0 0 0 .2-.2l-.2-.1-.4-.1a.2.2 0 0 0-.2 0" fill="#1D1D1B"/></svg>