<svg version="1.1" id="Layer_1" xmlns="http://www.w3.org/2000/svg" xmlns:xlink="http://www.w3.org/1999/xlink" x="0px" y="0px" viewBox="0 0 86 48" style="enable-background:new 0 0 86 48;" xml:space="preserve">
 <style type="text/css">
  .st0{fill:#FFFFFF;}
	.st1{fill:#DB0A40;}
	.st2{fill:url(#splash-4_1_);}
	.st3{fill:url(#splash-3.4_1_);}
	.st4{fill:url(#splash-3.3_1_);}
	.st5{fill:url(#splash-3.2_1_);}
	.st6{fill:url(#splash-3.1_1_);}
	.st7{fill:#FAD50A;}
	.st8{fill:#F2940A;}
 </style>
 <g id="logo_x2F_rbcom_x2F_desktop">
  <g id="f-rbmn-logo-logotype" transform="translate(1.000000, 0.000000)">
   <g id="color---simplified">
    <path id="outline" class="st0" d="M47.4,37.7c1.1-0.3,2.1-0.9,3.3-0.8c1.9,0.3,2.8-0.1,4.2-1c1.1,0.6,2.3,1.9,4.9,1.8
				c0.8,0.1,1.8-0.4,1.6-1.2c-0.1-0.8,1.4-0.4,1.5-1.4l0,0c0.2-0.6,0-0.6-0.9-1.1c-1.5-0.8-1.5-2.4-2.6-3.4
				c-0.1-0.1-0.5-0.4-0.5-0.6c-3.8-10.3,0.7-6.8-7.9-16.5c-2.5-1.8-6-6-9.2-5.8c-2.9,0.1-3.6,1.7-5.8,2.4c-2.7,1-4.3,1.2-6.5,3.2
				c-1.4,1.2-3.3-0.3-5.3,1.8c-4.2,4.3-4.7,0.3-11.6,5.7c-3.6,3.1-8.5,0.9-4.5-3.1c2-1.4,4.6-3.2,3.6-6c-0.3-2.1-3.3-2.6-5.2-2.9
				c-1.1-0.2-2.9-1.6-3.5-2c-1.8,2.1-0.9,6.8,3,7.3c0.2,0,0.3,0.1,0.3,0.3c0,0.1,0,0.3-0.1,0.4C3.5,17,2.9,18,2.8,20.5
				c-0.2,3.5,2.6,6.1,6.3,6c0.6,0,1.2,0,1.7-0.1c0.1,0,0.2,0,0.2,0.1c0.3,1.6,0.4,3.5,0.9,4c0.1,0.2,0.1,0.4-0.1,0.5
				c-1.2,1.1-3.6-0.1-4.2,1.9c-0.4,0.8-0.3,1.9-1.2,2.3c-0.6-0.1-0.8-1.1-1.7-1.1c-0.9,0-2.4,0.7-3,2.1c-0.7,0.5-1.4,0.2-1.7,1.2
				c-0.1,0-0.2,0.6-0.2,0.8c0,0.5-0.2,0.9-0.4,1.3c-0.7,0.8,0.1,1.9,1.1,2c0.8,0.1,1.3,0.4,1.5,0.1c0.1,0,0.1-0.1,0.2-0.1
				c0.2-0.2,0.4-0.1,0.6,0c0.4,0,1.1,0.4,1.6,0.3c0.1,0,0.2,0,0.3,0.1c1.5,0,2-0.6,2.5-1.4c0-0.4,0.3-0.6,0.4-0.9
				c0.1-0.1,0.2-0.2,0.4-0.2c0.3,0.1,0.9,0.2,1,0.2c2.3,0.2,2.9-2.2,4.8-2.4c0.5,0,1.3,0.1,3.1,0.3c1.2,0.1,2.4-0.8,3.5-1.4
				c0.5-0.3,1-0.4,1.4-1c0.5-0.4,1.2-3.1,1.9-3.1c1.5,0,2.9-0.5,4.3-0.5c1.8-0.1,3.6,0.4,5.3-0.2c0.1,0,0.4-0.1,0.5,0.1
				c0.2,0.3,0.9,0.5,0.7,0.9c0,0.1-0.2,0.2-0.3,0.3c-0.3,0-0.8,0-1.1,0.4c-0.1,0.1-0.6,0.2-0.7,0c-1,0.1-3.7-0.3-4,1.1
				c0.3,1.1,1.2,3.9,3,3.6c0.1,0,0.3,0.1,0.3,0.2c0.7,1.4,1.9,2.3,3,2.3s3.9-1,6-2h0.9c1.3-0.1,1.8-0.5,2.5-1.9
				C45.1,35.4,44.3,38.3,47.4,37.7L47.4,37.7z M45.4,31.2c-0.3,0.3-0.6,0.4-1,1c-0.7-0.3-0.8-1.2-0.9-1.6c0.6-0.1,1.9-0.4,2.6-0.5
				C45.7,30.5,45.5,30.7,45.4,31.2L45.4,31.2z">
    </path>
    <path id="bull" class="st1" d="M61.2,34.5c-1.3-0.7-1.8-2.2-2.6-3.3c-2.1-2.2-2.5-5.9-3-9c-0.6-3-3.1-5.2-4.9-7.5
				c-1.6-1.3-5.6-5.1-7.6-5.8c-2.5-1.1-4.8,0.9-6.9,1.9c-1.7,0.7-3.5,0.9-5.1,2.2c-2.4,3.1-3.8,0.6-6.6,3c-4.1,4.3-5.7,0.5-11.3,5.6
				c-1.5,0.9-2.9,1.8-4.8,1.7c-2.9-0.1-3.9-4-1.6-5.8c1.6-1.8,5.5-3.6,3.5-6.5c-2-1.8-4.4-1-6.8-3C2.6,9.8,4,12.2,5.8,12.8
				c0.7,0.5,2.5-0.3,2.8,0.8c-0.8,1.5-2.9,2.4-3.8,3.8c-2.4,2.8,0,7.5,3.4,7.7c1.3,0.4,2.9-0.6,3.7-0.2c0.1,1,0,1.9,0.2,2.8
				c0.1,1,1.2,2.1,0.6,3c-1,0.9-2.3,1.3-3.6,1.2c-0.7,0.8-0.8,1.7-1.2,2.6c-0.5,0.9-1.5,1.3-2.2,1.7c-0.5,0.7-0.9,1.5-1.9,1.6
				c-0.6,0.7-0.7,1.6-0.9,2.5c2.5,0.7,3.1,0.3,4.4-1.8c0.5-0.5,1.2-0.1,1.7,0c1.4-0.2,2.5-1.1,3.5-2c3.7-1,3.6,1.4,7.9-1.3
				c0.7-0.3,1-1.1,1.3-1.7c0.4-0.7,1.3-2,0.1-2.3c-3.2,6.4-8.7,1.2-12.9,6.1c-0.6,0.2-0.1-0.8,0-1c3-4.4,10-0.5,12.3-6.3
				c0.4-0.9,0.2-4.4,1.2-4.3c0.1,0,0.4,0.1,0.4,0.3c-1,4.3-0.3,5.6,4.2,4.9c1.6-0.5,6.1,1.1,6-1c0-0.4-0.4-0.6,0-0.9
				c0.1-0.1,0.4,0,0.5,0.1c0.3,1.7,1.8,3,3.2,3.7c2.9,2,1.7,4.6-1.6,4.4c-1.1-0.6-1.4-1.7-2.2-2.6c-0.9-0.8-2.2-0.4-3.3-0.2
				c-0.5,0.8,0.8,1.8,1,2.6c0.5,0.3,1.2-0.2,1.6,0.4c0.4,0.6,0.6,1.2,1.2,1.6c1.8,1.7,5.4-1.3,7.3-1.4c1.6,0.2,2.4-1.3,2.9-2.5
				c0.9-1.7-1.5-3.3-1.7-4.8c-0.6-0.2-1.3-0.6-1.7,0c0.3,0.8,2,3.5,1.9,4.3c-0.2,0.6-0.7,2-1.5,1.9c0.2-0.7,0.5-1.5,0.5-2.3
				c-0.4-0.9-2-3.4-2.1-4.2c0.3-0.9,2-0.4,2.6-1.2c0.7-1.1,0.9-2.2,1.1-3.6c0-0.1,0.2-0.3,0.3-0.3c1,0.6,0,3.7-0.6,4.3
				c-0.1,1,2,0.3,2.4,0c0.8,0.2,2.4-0.6,2.7-0.1c-0.5,0.6-0.8,1.3-1,2c-0.6,0.7-1.6,1.2-1.6,2.2c0.1,0.6,1-0.4,1,0.4
				c-0.9,1.1-0.8,1.4-0.5,2.6c0.9,1.3,2.7,0.2,3.8-0.1c1.9-0.8,4.1,0.4,5.7-1.6c0.4,0,0.8,0.3,1,0.6c1.1,1.2,2.7,1.8,4.3,1.7
				c0.7-0.5-0.8-0.8-1-1c-0.7-0.4-1.6-1-1.8-1.8c-0.3-1.1-1.1-2.2-1.6-3.2c2.4,0,2.6,5,6.1,4.2c0.2-0.1,0.2-0.2,0.1-0.4L61.2,34.5z
				 M44.2,19.2L44.2,19.2c-0.1,0.1-0.2,0.1-0.4,0.1l0,0c-0.3-1-0.4-2.1-0.9-2.9c-0.3-0.3-0.6-0.6-0.4-1.1l0,0
				c0.2-0.2,0.4-0.2,0.6-0.1c0.9,0.7,1.1,1.7,1.1,2.8C44.4,18.2,44.3,18.8,44.2,19.2L44.2,19.2 M52.5,33.5L52.5,33.5
				c-0.5,0.1-0.9,0.2-1.4,0.2H51c-0.6-0.6,0.6-1.7,1.3-1.6c0.1,0,0.2,0,0.3,0C53,32.2,52.9,33.2,52.5,33.5 M55.1,27.6
				c-0.1,0.2-0.3,0.7-0.5,0.7c-0.2,0-0.3,0-0.3-0.2c0-0.7-0.1-1.5-0.7-1.9c-1.3-2.1-1.7,0.5-2.1,0.2l0,0c-0.3-0.6,0.2-1.2,0.4-1.7
				l0,0c0.1-0.1,0.2-0.3,0.3-0.4c0.2-1.2,1.4-0.5,1.6,0.2c0.7,0.9,1.5,1.8,1.4,2.8C55.1,27.2,55.1,27.4,55.1,27.6 M3.9,36.9
				c0.7-0.4,1.1-1.1,1.4-1.7c-0.2-0.3-0.5-0.8-1-0.6c-0.5,0.4-1,0.7-1.5,1C2.5,36.3,3.2,37.1,3.9,36.9 M1.7,36.9
				c-1.2,0.5-0.6,2-1.3,2.7c0,0.1-0.2,0.3,0,0.4c0.5,0.1,0.9,0.3,1.5,0.4c0.3-0.9,0.5-1.9,0.7-2.7C2.4,37.4,2.1,37,1.7,36.9
				 M34.4,34.7c0.4,0.5,0.4,1.2,0.9,1.6c0.6,0.1,1.2-0.1,1.7-0.5c0.3-0.2-0.1-0.5-0.2-0.8c-0.3-0.4-0.1-1.2-0.8-1.2
				c-0.8,0.2-1.6,0-2.3,0.2C33.7,34.3,34.3,34.3,34.4,34.7">
    </path>
    <linearGradient id="splash-4_1_" gradientUnits="userSpaceOnUse" x1="6.8965" y1="131.3125" x2="7.8192" y2="131.3125" gradientTransform="matrix(42.24 0 0 -26.6667 -245.0133 3536.3333)">
     <stop offset="0" style="stop-color:#1885C8">
     </stop>
     <stop offset="0.14" style="stop-color:#1881C3">
     </stop>
     <stop offset="0.32" style="stop-color:#1A74B3">
     </stop>
     <stop offset="0.52" style="stop-color:#1B6099">
     </stop>
     <stop offset="0.73" style="stop-color:#1E4475">
     </stop>
     <stop offset="0.96" style="stop-color:#212047">
     </stop>
     <stop offset="1" style="stop-color:#22183D">
     </stop>
     <stop offset="1" style="stop-color:#22183D">
     </stop>
    </linearGradient>
    <path id="splash-4" class="st2" d="M83.9,27.8c0-1.7-0.7-3.5-1.9-4.7l0,0L82,23.1c-0.6,2.3-1.4,4.3-3.8,7.9
				c-0.9,1.4-2.5,1.4-3.5,2.7c-0.2-0.1-0.2-0.3-0.5,0c1.3-1.4-0.2-0.7,0.4-1.3c2.2-2.4,4.2-4.6,5.1-7.9c-0.4,0.5-0.6,0.6-0.9,1.1
				c0.4-1.4,0.7-2.6,1-4l-0.4-0.2c-1.4,4.6-3.6,8.6-7.7,11.3c-5.3,3.9-0.8,2.6,0.1,1.8c-6.7,6.8-21.6,11.2-30.1,4.3
				c1.2,1.2,2.8,2.6,4.2,3.5c-0.9-0.2-1.5-0.8-2.4-1.1c0,0,2,2.6,8.1,3.3c0.4,0,0.8,0.1,1.1,0.1c8.2,0.6,8.7-0.8,14.4-2
				c0.3,0.1-1.8,1.2-4.7,2c-4.6,1.7-9.9,0.4-13.7,0h0l0,0c0.1,0,0.7,0.3,3.8,1.4c-0.2,0.1-1.2,0.2-5.4-1.6
				c10.3,5.9,21.4,1.4,30.5-5.3c0,0,0,0.1,0,0.1c0.1,0,0.2,0,0.3,0c0,0.1,0,0.1-0.8,1c1.5-1.2,2.3-3.2,4-4.3
				c-0.8,1.7-1.9,2.9-3.9,4.8c0.2-0.1,0.3-0.2,0.4-0.4c-3,2.8-7,5.6-13.1,7c0.4-0.1,0.9-0.1,1.3-0.3c-0.8,0.2-0.8,0.2-1.1,0.4
				c0.2,0,0.2,0,1.3-0.2c-0.6,0.3-1.3,0.4-3.1,0.8C73.1,46.4,83.7,38.4,83.9,27.8z">
    </path>
    <linearGradient id="splash-3.4_1_" gradientUnits="userSpaceOnUse" x1="6.499" y1="123.3986" x2="7.5438" y2="123.4701" gradientTransform="matrix(17.0667 0 0 -7.68 -50.4534 991.2667)">
     <stop offset="0.24" style="stop-color:#52BCE8">
     </stop>
     <stop offset="1" style="stop-color:#3F88B9">
     </stop>
    </linearGradient>
    <path id="splash-3.4" class="st3" d="M73.6,41.8c-4.1,2.6-8.5,4.8-13.5,5.4c6,0.2,13.2-4.1,17.1-7.7C75.9,40.2,74.7,41,73.6,41.8
				z">
    </path>
    <linearGradient id="splash-3.3_1_" gradientUnits="userSpaceOnUse" x1="6.526" y1="106.0402" x2="7.526" y2="106.0402" gradientTransform="matrix(18.9867 0 0 -2.9867 -75.84 360.653)">
     <stop offset="0.54" style="stop-color:#52BCE8">
     </stop>
     <stop offset="1" style="stop-color:#49A4D3">
     </stop>
    </linearGradient>
    <path id="splash-3.3" class="st4" d="M67.1,42.5c-5.8,1.2-6.1,2.7-14.3,2.1c-0.6,0.2-4.1,0-4.6-0.2c0,0,0.3,0.1,0.5,0.2h0
				c0.9-0.1,6.6,1.1,8.4,0.9C59.3,45.6,66.8,43.3,67.1,42.5z">
    </path>
    <linearGradient id="splash-3.2_1_" gradientUnits="userSpaceOnUse" x1="6.2241" y1="127.5034" x2="6.5045" y2="127.5965" gradientTransform="matrix(7.8933 0 0 -12.16 27.84 1578.1464)">
     <stop offset="0" style="stop-color:#3A78AC">
     </stop>
     <stop offset="0.29" style="stop-color:#34689E">
     </stop>
     <stop offset="0.86" style="stop-color:#253E78">
     </stop>
     <stop offset="1" style="stop-color:#21336E">
     </stop>
    </linearGradient>
    <path id="splash-3.2" class="st5" d="M79.9,21.6l-0.2-0.1c-0.3,1.4-0.6,2.6-1,4c0.4-0.5,0.6-0.6,0.9-1c-0.9,3.3-2.9,5.5-5.1,7.9
				c-0.6,0.6,0.9,0-0.4,1.3c0.3-0.3,0.2-0.2,0.5,0c1-1.3,2.6-1.3,3.6-2.7c2.4-3.6,3.2-5.6,3.8-7.9c0,0,0,0,0.1,0.1l0,0
				C81.4,22.5,80.7,22,79.9,21.6L79.9,21.6z">
    </path>
    <linearGradient id="splash-3.1_1_" gradientUnits="userSpaceOnUse" x1="6.7024" y1="130.1211" x2="7.7634" y2="130.2661" gradientTransform="matrix(32 0 0 -19.84 -167.5733 2613.8801)">
     <stop offset="0" style="stop-color:#52BCE8">
     </stop>
     <stop offset="0.25" style="stop-color:#51B9E6">
     </stop>
     <stop offset="0.41" style="stop-color:#4EB0DE">
     </stop>
     <stop offset="0.56" style="stop-color:#48A1D0">
     </stop>
     <stop offset="0.69" style="stop-color:#418CBD">
     </stop>
     <stop offset="0.78" style="stop-color:#3977AB">
     </stop>
     <stop offset="0.85" style="stop-color:#33669C">
     </stop>
     <stop offset="0.98" style="stop-color:#243B75">
     </stop>
     <stop offset="1" style="stop-color:#21336E">
     </stop>
    </linearGradient>
    <path id="splash-3.1" class="st6" d="M52.9,39.5c-3.8-2.1-1-0.7,2.3,0.1c2.4,0.6,4.9,0.8,7.4,0.7c3.9-1.5,7.3-3.7,9.2-5.8
				c-0.9,0.8-5.3,2.1-0.1-1.8c4.1-2.8,6.3-6.8,7.7-11.4c-1.1-0.4-2.2-0.7-3.3-0.8c-1.6,3.8-1.8,6.4-5.3,8.5
				c-3.9,2.6-1.5,1.9-1.4,1.9c0.3-0.1,0.6-0.3,0.9-0.5c-1.5,2.4-4.1,4-7.3,4.7c-0.1,1-1.6,0.7-1.5,1.4c0.2,0.9-0.8,1.3-1.6,1.2
				c-2.6,0-3.8-1.2-4.9-1.9c-1.7,1.1-2.4,1.2-4.5,1c-1,0-2,0.5-3,0.8C48.9,39,55.2,40.7,52.9,39.5z M72.9,29c0.7-1.4,2.2-2.2,2.7-4
				c-0.1,0.3,0.5,0.4,0.7,0.4c0.9-0.1,0.9-1.3,1.2-1.6c-0.2,2.7-2,4.9-4,6.7c-0.3-0.2-0.6-0.2-0.9,0C72.4,30,73.5,29.3,72.9,29z">
    </path>
    <path id="splash-2" class="st7" d="M76.3,13.1c-2.5-1.4-5.4-1.8-8.1-2.9l0,0c4,0.9,8.9,1.7,11.9,4.8c0,0,0.2,0.1,0.2,0.1
				c0.3,0.2,0.6,0.8,0.9,0.6C74.9,3.4,55.9,4.8,46.8,9.9c0.5,0.4,1,0.8,1.5,1.3c1.7-1.4,8.7-2.4,9.3-2.3l0,0
				c-2.3,0.5-6.2,1.9-8.6,2.9l0.3,0.3c4.8-1.7,12.1-2.9,17.3-1.6c-4.1,0.5-11.5,0.4-16.4,2.4c1.3,1,2.6,2.9,3.7,4.3
				c8-3.9,12.6-4.1,16.7-3.5c0.4,0.2-2.9,0.4-2.1,0.6c0.9,0.2,2.5-0.3,2.9-0.3c0.2-0.1,1.8,0,2.3,0.1c1.9,0.5,0.1,0.7-0.5,0.5
				c-0.3,0-0.6,0-1,0c-0.7,0.1-1.6,0.3-2.3,0.4c-0.2,0-2.4,0-2.1,0.3c0.4,0,2.3,0.3,2.7,0.3c0.3-0.1,0.6,0,0.9-0.1
				c0.1-0.1,0.7-0.2,0.7,0.1c-0.6,1.4-2.5,0.3-3.9,0.6c-1.3,0.1-2.6,0.7-2.8,0.5c4.2-2.5-6,1.2-5.8,1.9c0,0,0,0,0,0
				c0,0.6,1.6-0.3,1.9-0.2c0.7-0.1,1.6-0.5,2.3-0.6c0.5,0,0.7,0.3,1.2,0.1c1.1,0,2.1-0.5,3.2-0.7c0.1,0,0.8,0.3,0.7,0.4
				c2,1.8,3.1,0.3,5.3,0.9c0.4,0-0.1,0.3-0.2,0.3c-1.2,0.8-2.6,1-3.9,1.1c-0.2,0-0.5,0-0.7,0.1c-0.4,0-0.9,0.2-1.3,0.1
				c-1.3,0-2.5,0.2-3.7,0.8c-0.4,0.1-0.9,0.2-1.2,0.5c-0.3,0.3-0.8,0.2-1.1,0.5c-0.5,0.3-4.2,1.1-3.8,1.8c0,0,0,0,0,0h0c0,0,0,0,0,0
				c6.1-0.9,13.4-5.2,21.2-2l0,0c3.2,1.6,5,4.5,3.7,9.9c0,0,0.1-0.4,0.1-0.4l0,0c0.4-1.3,0.7-2.4,0.7-3.7
				C85,22.6,81.5,15.9,76.3,13.1z M69.1,8.5c1.1,0.3,3.2,0.6,3.9,1.3c-1.8,0-2.6-0.8-2.6-0.8C70,9,68.9,8.6,69.1,8.5z">
    </path>
    <path id="splash-1" class="st8" d="M49.1,11.8l-0.7-0.6c1.8-1.4,8.7-2.4,9.4-2.3c-1,0.2-2.1,0.5-3.1,0.8
				C52.9,10.4,50.8,11.1,49.1,11.8z M84.9,21.7c-1.1-8-3.8-15.1-13.7-17.7c6.1,1.5,6.5,2.2,7.3,2.7c-4.7-4.4-12.3-5.9-20-4.6
				C63.1,0.8,70.4,0.9,75,3.8C64-3,50.8-0.1,42.7,7.7C44.2,8,45.6,9,46.8,9.9c9.2-5,28.2-6.4,34.5,5.9c-0.4,0.2-0.6-0.4-0.9-0.6
				c0,0-0.2-0.1-0.2-0.1c-3-3-7.8-3.9-11.9-4.8c2.7,1.1,5.6,1.4,8.1,2.8c6.6,3.8,9.5,11.5,7.2,17.8l0,0l0,0
				C84.7,28,85.1,24.9,84.9,21.7L84.9,21.7z M62.6,10c-4.2,0-9.5,0.8-13.1,2.2l0.8,0.7c4.3-1.6,11.5-2,15-2.2
				C69.1,10.5,64,10,62.6,10z M70.4,9.1c-0.1,0,0.9,0.8,2.6,0.8c-0.7-0.7-2.7-1.1-3.9-1.3C69,8.7,70.1,9,70.4,9.1L70.4,9.1z">
    </path>
   </g>
  </g>
 </g>
</svg>